<?xml version="1.0" encoding="UTF-8"?>
<svg width="13px" height="13px" viewBox="0 0 13 13" version="1.1" xmlns="http://www.w3.org/2000/svg" xmlns:xlink="http://www.w3.org/1999/xlink">
    <!-- Generator: Sketch 55.2 (78181) - https://sketchapp.com -->
    <title>remove</title>
    <desc>Created with Sketch.</desc>
    <g id="Page-2" stroke="none" stroke-width="1" fill="none" fill-rule="evenodd">
        <g id="request-card" transform="translate(-826.000000, -763.000000)" fill="#9B9B9B" fill-rule="nonzero">
            <path d="M832.152179,775.707031 C828.872138,775.707031 826.155273,772.990167 826.155273,769.703937 C826.155273,766.423896 828.865949,763.707031 832.152179,763.707031 C835.43222,763.707031 838.155273,766.423896 838.155273,769.703937 C838.155273,772.990167 835.438409,775.707031 832.152179,775.707031 Z M832.152179,774.636376 C834.893798,774.636376 837.090807,772.445556 837.084644,769.703937 C837.084644,766.968506 834.88761,764.771497 832.152179,764.771497 C829.41056,764.771497 827.225928,766.968506 827.225928,769.703937 C827.225928,772.445556 829.416748,774.636376 832.152179,774.636376 Z M829.812829,770.223792 C829.472447,770.223792 829.237274,770.03813 829.237274,769.722503 C829.237274,769.394499 829.46007,769.202648 829.812829,769.202648 L834.491529,769.202648 C834.844288,769.202648 835.060895,769.394499 835.060895,769.722503 C835.060895,770.03813 834.831911,770.223792 834.491529,770.223792 L829.812829,770.223792 Z" id="remove"></path>
        </g>
    </g>
</svg>