<?xml version="1.0" encoding="UTF-8"?>
<svg width="13px" height="13px" viewBox="0 0 13 13" version="1.1" xmlns="http://www.w3.org/2000/svg" xmlns:xlink="http://www.w3.org/1999/xlink">
    <!-- Generator: Sketch 55.2 (78181) - https://sketchapp.com -->
    <title>add</title>
    <desc>Created with Sketch.</desc>
    <g id="Page-2" stroke="none" stroke-width="1" fill="none" fill-rule="evenodd">
        <g id="request-card" transform="translate(-782.000000, -763.000000)" fill="#9B9B9B" fill-rule="nonzero">
            <path d="M788.152179,775.707031 C784.872138,775.707031 782.155273,772.990167 782.155273,769.703937 C782.155273,766.423896 784.865949,763.707031 788.152179,763.707031 C791.43222,763.707031 794.155273,766.423896 794.155273,769.703937 C794.155273,772.990167 791.438409,775.707031 788.152179,775.707031 Z M788.152179,774.636376 C790.893798,774.636376 793.090807,772.445556 793.084644,769.703937 C793.084644,766.968506 790.88761,764.771497 788.152179,764.771497 C785.41056,764.771497 783.225928,766.968506 783.225928,769.703937 C783.225928,772.445556 785.416748,774.636376 788.152179,774.636376 Z M788.139802,772.482689 C787.824175,772.482689 787.638512,772.247516 787.638512,771.913323 L787.638512,770.217604 L785.849961,770.217604 C785.515769,770.217604 785.274407,770.031941 785.274407,769.716314 C785.274407,769.38831 785.503391,769.196459 785.849961,769.196459 L787.638512,769.196459 L787.638512,767.401719 C787.638512,767.067526 787.824175,766.832354 788.139802,766.832354 C788.467806,766.832354 788.659657,767.055149 788.659657,767.401719 L788.659657,769.196459 L790.454397,769.196459 C790.800967,769.196459 791.023762,769.38831 791.023762,769.716314 C791.023762,770.031941 790.78859,770.217604 790.454397,770.217604 L788.659657,770.217604 L788.659657,771.913323 C788.659657,772.259894 788.467806,772.482689 788.139802,772.482689 Z" id="add"></path>
        </g>
    </g>
</svg>